<?xml version="1.0" encoding="UTF-8" standalone="no"?>
<!DOCTYPE svg PUBLIC "-//W3C//DTD SVG 1.1//EN"
 "http://www.w3.org/Graphics/SVG/1.1/DTD/svg11.dtd">
<!-- Generated by graphviz version 2.43.0 (0)
 -->
<!-- Title: Type_Graph Pages: 1 -->
<svg width="3205pt" height="239pt"
 viewBox="0.00 0.00 3205.23 239.48" xmlns="http://www.w3.org/2000/svg" xmlns:xlink="http://www.w3.org/1999/xlink">
<g id="graph0" class="graph" transform="scale(1 1) rotate(0) translate(4 235.48)">
<title>Type_Graph</title>
<polygon fill="white" stroke="transparent" points="-4,4 -4,-235.48 3201.23,-235.48 3201.23,4 -4,4"/>
<!-- 0 -->
<g id="node1" class="node">
<title>0</title>
<ellipse fill="none" stroke="blue" cx="1511.73" cy="-204.61" rx="83.38" ry="26.74"/>
<text text-anchor="middle" x="1511.73" y="-208.41" font-family="Times,serif" font-size="14.00">T_A[A, B]</text>
<text text-anchor="middle" x="1511.73" y="-193.41" font-family="Times,serif" font-size="14.00">Generics: A ,B</text>
</g>
<!-- 6 -->
<g id="node2" class="node">
<title>6</title>
<ellipse fill="none" stroke="blue" cx="82.73" cy="-99.87" rx="82.96" ry="26.74"/>
<text text-anchor="middle" x="82.73" y="-103.67" font-family="Times,serif" font-size="14.00">CC_E[L, K]</text>
<text text-anchor="middle" x="82.73" y="-88.67" font-family="Times,serif" font-size="14.00">Generics: K ,L</text>
</g>
<!-- 0&#45;&gt;6 -->
<g id="edge10" class="edge">
<title>0&#45;&gt;6</title>
<path fill="none" stroke="black" d="M1427.99,-203.81C1185.21,-203.89 484.04,-200.48 258.73,-159.74 218.62,-152.49 175.17,-138.03 141.48,-125.25"/>
<polygon fill="black" stroke="black" points="142.39,-121.85 131.8,-121.53 139.88,-128.38 142.39,-121.85"/>
<text text-anchor="middle" x="325.23" y="-148.54" font-family="Times,serif" font-size="14.00">{A == K, B == L}</text>
</g>
<!-- 7 -->
<g id="node3" class="node">
<title>7</title>
<ellipse fill="none" stroke="blue" cx="270.73" cy="-99.87" rx="87.86" ry="26.74"/>
<text text-anchor="middle" x="270.73" y="-103.67" font-family="Times,serif" font-size="14.00">CC_F[N, M]</text>
<text text-anchor="middle" x="270.73" y="-88.67" font-family="Times,serif" font-size="14.00">Generics: M ,N</text>
</g>
<!-- 0&#45;&gt;7 -->
<g id="edge12" class="edge">
<title>0&#45;&gt;7</title>
<path fill="none" stroke="black" d="M1428.08,-202.97C1212.8,-200.85 643.54,-192.27 457.73,-159.74 415.29,-152.31 369.09,-137.83 333.23,-125.09"/>
<polygon fill="black" stroke="black" points="334,-121.65 323.41,-121.55 331.63,-128.24 334,-121.65"/>
<text text-anchor="middle" x="527.23" y="-148.54" font-family="Times,serif" font-size="14.00">{B == N, A == M}</text>
</g>
<!-- 9 -->
<g id="node4" class="node">
<title>9</title>
<ellipse fill="none" stroke="blue" cx="473.73" cy="-99.87" rx="97.66" ry="26.74"/>
<text text-anchor="middle" x="473.73" y="-103.67" font-family="Times,serif" font-size="14.00">CC_H[Q, R, S]</text>
<text text-anchor="middle" x="473.73" y="-88.67" font-family="Times,serif" font-size="14.00">Generics: Q ,R ,S</text>
</g>
<!-- 0&#45;&gt;9 -->
<g id="edge14" class="edge">
<title>0&#45;&gt;9</title>
<path fill="none" stroke="black" d="M1428.69,-201.92C1245.13,-197.76 809.72,-185.43 664.73,-159.74 621.92,-152.15 575.26,-137.89 538.77,-125.3"/>
<polygon fill="black" stroke="black" points="539.84,-121.97 529.25,-121.98 537.53,-128.58 539.84,-121.97"/>
<text text-anchor="middle" x="732.23" y="-148.54" font-family="Times,serif" font-size="14.00">{B == Q, A == R}</text>
</g>
<!-- 10 -->
<g id="node8" class="node">
<title>10</title>
<ellipse fill="none" stroke="tomato" cx="949.73" cy="-99.87" rx="360.94" ry="18"/>
<text text-anchor="middle" x="949.73" y="-96.17" font-family="Times,serif" font-size="14.00">T_A[CC_E[T_A[Byte, Char], CC_G[Int, Int]], T_A[T_A[Int, Boolean], Boolean]]</text>
</g>
<!-- 0&#45;&gt;10 -->
<g id="edge2" class="edge">
<title>0&#45;&gt;10</title>
<path fill="none" stroke="black" d="M1428.77,-201.42C1247.72,-196.24 831.6,-181.96 810.73,-159.74 793.87,-141.79 808.11,-129.09 832.9,-120.2"/>
<polygon fill="black" stroke="black" points="834.04,-123.51 842.47,-117.09 831.88,-116.85 834.04,-123.51"/>
<text text-anchor="middle" x="1114.23" y="-148.54" font-family="Times,serif" font-size="14.00">{B == T_A[T_A[Int, Boolean], Boolean], A == CC_E[T_A[Byte, Char], CC_G[Int, Int]]}</text>
</g>
<!-- 3 -->
<g id="node9" class="node">
<title>3</title>
<ellipse fill="none" stroke="blue" cx="1411.73" cy="-99.87" rx="83.38" ry="26.74"/>
<text text-anchor="middle" x="1411.73" y="-103.67" font-family="Times,serif" font-size="14.00">CC_B[F, E]</text>
<text text-anchor="middle" x="1411.73" y="-88.67" font-family="Times,serif" font-size="14.00">Generics: E ,F</text>
</g>
<!-- 0&#45;&gt;3 -->
<g id="edge13" class="edge">
<title>0&#45;&gt;3</title>
<path fill="none" stroke="black" d="M1459.53,-183.58C1448.47,-177.34 1437.73,-169.47 1429.73,-159.74 1424.28,-153.11 1420.48,-144.84 1417.82,-136.62"/>
<polygon fill="black" stroke="black" points="1421.13,-135.45 1415.13,-126.72 1414.38,-137.29 1421.13,-135.45"/>
<text text-anchor="middle" x="1496.73" y="-148.54" font-family="Times,serif" font-size="14.00">{B == E, A == F}</text>
</g>
<!-- 5 -->
<g id="node10" class="node">
<title>5</title>
<ellipse fill="none" stroke="blue" cx="1589.73" cy="-99.87" rx="76.24" ry="26.74"/>
<text text-anchor="middle" x="1589.73" y="-103.67" font-family="Times,serif" font-size="14.00">CC_D[J, I]</text>
<text text-anchor="middle" x="1589.73" y="-88.67" font-family="Times,serif" font-size="14.00">Generics: I ,J</text>
</g>
<!-- 0&#45;&gt;5 -->
<g id="edge8" class="edge">
<title>0&#45;&gt;5</title>
<path fill="none" stroke="black" d="M1547.63,-180.28C1555,-174.26 1562.19,-167.31 1567.73,-159.74 1572.87,-152.72 1576.95,-144.35 1580.12,-136.17"/>
<polygon fill="black" stroke="black" points="1583.42,-137.32 1583.44,-126.73 1576.82,-135 1583.42,-137.32"/>
<text text-anchor="middle" x="1638.73" y="-148.54" font-family="Times,serif" font-size="14.00">{B == I, A == J}</text>
</g>
<!-- 4 -->
<g id="node11" class="node">
<title>4</title>
<ellipse fill="none" stroke="blue" cx="1769.73" cy="-99.87" rx="85.62" ry="26.74"/>
<text text-anchor="middle" x="1769.73" y="-103.67" font-family="Times,serif" font-size="14.00">CC_C[H, G]</text>
<text text-anchor="middle" x="1769.73" y="-88.67" font-family="Times,serif" font-size="14.00">Generics: G ,H</text>
</g>
<!-- 0&#45;&gt;4 -->
<g id="edge5" class="edge">
<title>0&#45;&gt;4</title>
<path fill="none" stroke="black" d="M1590.04,-195.11C1626.43,-188.87 1669.37,-178.14 1704.73,-159.74 1717.77,-152.95 1730.22,-142.91 1740.68,-133.04"/>
<polygon fill="black" stroke="black" points="1743.23,-135.43 1747.91,-125.92 1738.33,-130.44 1743.23,-135.43"/>
<text text-anchor="middle" x="1795.23" y="-148.54" font-family="Times,serif" font-size="14.00">{A == H, B == G}</text>
</g>
<!-- 2 -->
<g id="node12" class="node">
<title>2</title>
<ellipse fill="none" stroke="blue" cx="1957.73" cy="-99.87" rx="84.29" ry="26.74"/>
<text text-anchor="middle" x="1957.73" y="-103.67" font-family="Times,serif" font-size="14.00">CC_A[D, C]</text>
<text text-anchor="middle" x="1957.73" y="-88.67" font-family="Times,serif" font-size="14.00">Generics: C ,D</text>
</g>
<!-- 0&#45;&gt;2 -->
<g id="edge1" class="edge">
<title>0&#45;&gt;2</title>
<path fill="none" stroke="black" d="M1595.16,-203.92C1668.93,-201.74 1778.41,-192.44 1867.73,-159.74 1886.08,-153.02 1904.46,-141.97 1919.78,-131.23"/>
<polygon fill="black" stroke="black" points="1921.9,-134.02 1927.96,-125.34 1917.8,-128.35 1921.9,-134.02"/>
<text text-anchor="middle" x="1965.23" y="-148.54" font-family="Times,serif" font-size="14.00">{B == D, A == C}</text>
</g>
<!-- 8 -->
<g id="node13" class="node">
<title>8</title>
<ellipse fill="none" stroke="blue" cx="2143.73" cy="-99.87" rx="84.29" ry="26.74"/>
<text text-anchor="middle" x="2143.73" y="-103.67" font-family="Times,serif" font-size="14.00">CC_G[P, O]</text>
<text text-anchor="middle" x="2143.73" y="-88.67" font-family="Times,serif" font-size="14.00">Generics: O ,P</text>
</g>
<!-- 0&#45;&gt;8 -->
<g id="edge7" class="edge">
<title>0&#45;&gt;8</title>
<path fill="none" stroke="black" d="M1594.61,-200.89C1721.16,-196.03 1956.34,-184.01 2036.73,-159.74 2058.99,-153.02 2081.8,-141.26 2100.62,-130.01"/>
<polygon fill="black" stroke="black" points="2102.55,-132.93 2109.24,-124.72 2098.89,-126.97 2102.55,-132.93"/>
<text text-anchor="middle" x="2138.73" y="-148.54" font-family="Times,serif" font-size="14.00">{A == O, B == P}</text>
</g>
<!-- 11 -->
<g id="node14" class="node">
<title>11</title>
<ellipse fill="none" stroke="blue" cx="1606.73" cy="-18" rx="32.49" ry="18"/>
<text text-anchor="middle" x="1606.73" y="-14.3" font-family="Times,serif" font-size="14.00">CC_I</text>
</g>
<!-- 0&#45;&gt;11 -->
<g id="edge11" class="edge">
<title>0&#45;&gt;11</title>
<path fill="none" stroke="black" d="M1595.08,-202.09C1768.44,-198.4 2156.29,-187.15 2209.73,-159.74 2226.59,-151.09 2230.36,-144.59 2236.73,-126.74 2244.76,-104.25 2252.88,-90.6 2236.73,-73 2197.11,-29.84 1785.51,-21.11 1649.84,-19.4"/>
<polygon fill="black" stroke="black" points="1649.48,-15.9 1639.44,-19.28 1649.39,-22.9 1649.48,-15.9"/>
<text text-anchor="middle" x="2550.23" y="-96.17" font-family="Times,serif" font-size="14.00">{B == T_A[T_A[Int, Boolean], Boolean], A == CC_E[T_A[Byte, Char], CC_G[Int, Int]]}</text>
</g>
<!-- 13 -->
<g id="node5" class="node">
<title>13</title>
<ellipse fill="none" stroke="blue" cx="2957.73" cy="-99.87" rx="69.09" ry="26.74"/>
<text text-anchor="middle" x="2957.73" y="-103.67" font-family="Times,serif" font-size="14.00">CC_K[T]</text>
<text text-anchor="middle" x="2957.73" y="-88.67" font-family="Times,serif" font-size="14.00">Generics: T</text>
</g>
<!-- 14 -->
<g id="node6" class="node">
<title>14</title>
<ellipse fill="none" stroke="blue" cx="3079.73" cy="-99.87" rx="34.39" ry="18"/>
<text text-anchor="middle" x="3079.73" y="-96.17" font-family="Times,serif" font-size="14.00">CC_L</text>
</g>
<!-- 12 -->
<g id="node7" class="node">
<title>12</title>
<ellipse fill="none" stroke="blue" cx="3164.73" cy="-99.87" rx="32.49" ry="18"/>
<text text-anchor="middle" x="3164.73" y="-96.17" font-family="Times,serif" font-size="14.00">CC_J</text>
</g>
<!-- 10&#45;&gt;11 -->
<g id="edge6" class="edge">
<title>10&#45;&gt;11</title>
<path fill="none" stroke="black" d="M1079.93,-83.04C1230.29,-64.76 1469.22,-35.72 1565.01,-24.07"/>
<polygon fill="black" stroke="black" points="1565.66,-27.52 1575.16,-22.84 1564.81,-20.57 1565.66,-27.52"/>
</g>
<!-- 1 -->
<g id="node15" class="node">
<title>1</title>
<ellipse fill="none" stroke="blue" cx="3079.73" cy="-204.61" rx="27.9" ry="18"/>
<text text-anchor="middle" x="3079.73" y="-200.91" font-family="Times,serif" font-size="14.00">T_B</text>
</g>
<!-- 1&#45;&gt;13 -->
<g id="edge9" class="edge">
<title>1&#45;&gt;13</title>
<path fill="none" stroke="black" d="M3063.28,-189.75C3045.59,-174.86 3016.92,-150.71 2993.92,-131.34"/>
<polygon fill="black" stroke="black" points="2995.95,-128.48 2986.05,-124.72 2991.44,-133.83 2995.95,-128.48"/>
</g>
<!-- 1&#45;&gt;14 -->
<g id="edge4" class="edge">
<title>1&#45;&gt;14</title>
<path fill="none" stroke="black" d="M3079.73,-186.18C3079.73,-170.29 3079.73,-146.56 3079.73,-128.16"/>
<polygon fill="black" stroke="black" points="3083.23,-128.04 3079.73,-118.04 3076.23,-128.04 3083.23,-128.04"/>
</g>
<!-- 1&#45;&gt;12 -->
<g id="edge3" class="edge">
<title>1&#45;&gt;12</title>
<path fill="none" stroke="black" d="M3092.27,-188.45C3106.25,-171.55 3129.04,-144.02 3145.32,-124.33"/>
<polygon fill="black" stroke="black" points="3148.18,-126.36 3151.86,-116.43 3142.79,-121.9 3148.18,-126.36"/>
</g>
</g>
</svg>
