<?xml version="1.0" encoding="UTF-8" standalone="no"?>
<!DOCTYPE svg PUBLIC "-//W3C//DTD SVG 1.1//EN"
 "http://www.w3.org/Graphics/SVG/1.1/DTD/svg11.dtd">
<!-- Generated by graphviz version 10.0.1 (20240210.2158)
 -->
<!-- Title: Type_Graph Pages: 1 -->
<svg width="1647pt" height="494pt"
 viewBox="0.00 0.00 1647.23 494.31" xmlns="http://www.w3.org/2000/svg" xmlns:xlink="http://www.w3.org/1999/xlink">
<g id="graph0" class="graph" transform="scale(1 1) rotate(0) translate(4 490.31)">
<title>Type_Graph</title>
<polygon fill="white" stroke="none" points="-4,4 -4,-490.31 1643.23,-490.31 1643.23,4 -4,4"/>
<!-- 3 -->
<g id="node1" class="node">
<title>3</title>
<ellipse fill="none" stroke="blue" cx="57.98" cy="-350.77" rx="57.98" ry="27.93"/>
<text text-anchor="middle" x="57.98" y="-353.22" font-family="Times New Roman,serif" font-size="14.00">CC_B[D]</text>
<text text-anchor="middle" x="57.98" y="-337.47" font-family="Times New Roman,serif" font-size="14.00">Generics: D</text>
</g>
<!-- 8 -->
<g id="node2" class="node">
<title>8</title>
<ellipse fill="none" stroke="tomato" cx="606.98" cy="-243.15" rx="70.18" ry="27.93"/>
<text text-anchor="middle" x="606.98" y="-245.6" font-family="Times New Roman,serif" font-size="14.00">T_A[C, C]</text>
<text text-anchor="middle" x="606.98" y="-229.85" font-family="Times New Roman,serif" font-size="14.00">Generics: C ,C</text>
</g>
<!-- 4 -->
<g id="node5" class="node">
<title>4</title>
<ellipse fill="none" stroke="tomato" cx="696.98" cy="-350.77" rx="98.82" ry="27.93"/>
<text text-anchor="middle" x="696.98" y="-353.22" font-family="Times New Roman,serif" font-size="14.00">T_A[CC_A[Char], E]</text>
<text text-anchor="middle" x="696.98" y="-337.47" font-family="Times New Roman,serif" font-size="14.00">Generics: E</text>
</g>
<!-- 8&#45;&gt;4 -->
<g id="edge21" class="edge">
<title>8&#45;&gt;4</title>
<path fill="none" stroke="black" d="M549.17,-259.25C521,-269.5 496.26,-284.83 511.98,-304.83 523.25,-319.17 559.19,-329.5 596.42,-336.61"/>
<polygon fill="black" stroke="black" points="595.51,-340 605.98,-338.35 596.77,-333.11 595.51,-340"/>
<text text-anchor="middle" x="591.48" y="-291.53" font-family="Times New Roman,serif" font-size="14.00">{C &lt;: E, C &lt;: CC_A[Char]}</text>
</g>
<!-- 0 -->
<g id="node8" class="node">
<title>0</title>
<ellipse fill="none" stroke="blue" cx="991.98" cy="-27.93" rx="69.65" ry="27.93"/>
<text text-anchor="middle" x="991.98" y="-30.38" font-family="Times New Roman,serif" font-size="14.00">T_A[A, B]</text>
<text text-anchor="middle" x="991.98" y="-14.63" font-family="Times New Roman,serif" font-size="14.00">Generics: A ,B</text>
</g>
<!-- 8&#45;&gt;0 -->
<g id="edge20" class="edge">
<title>8&#45;&gt;0</title>
<path fill="none" stroke="black" d="M539.83,-234.8C512.87,-228.68 483.41,-217.53 462.98,-197.22 434.53,-168.94 434.74,-143.71 452.23,-107.61 462.79,-85.83 472.5,-82.82 494.98,-73.86 568.47,-44.58 790,-34.21 910.98,-30.67"/>
<polygon fill="black" stroke="black" points="910.96,-34.17 920.85,-30.39 910.76,-27.18 910.96,-34.17"/>
<text text-anchor="middle" x="500.36" y="-130.12" font-family="Times New Roman,serif" font-size="14.00">{C &lt;: A, C &lt;: B}</text>
</g>
<!-- 7 -->
<g id="node9" class="node">
<title>7</title>
<ellipse fill="none" stroke="tomato" cx="678.98" cy="-135.54" rx="121.42" ry="18"/>
<text text-anchor="middle" x="678.98" y="-130.12" font-family="Times New Roman,serif" font-size="14.00">T_A[T_A[Char, Char], Char]</text>
</g>
<!-- 8&#45;&gt;7 -->
<g id="edge17" class="edge">
<title>8&#45;&gt;7</title>
<path fill="none" stroke="black" d="M654.18,-222.26C664.09,-215.78 673.27,-207.53 678.98,-197.22 684.29,-187.65 685.29,-175.85 684.61,-165.21"/>
<polygon fill="black" stroke="black" points="688.09,-164.89 683.43,-155.38 681.14,-165.72 688.09,-164.89"/>
<text text-anchor="middle" x="784.86" y="-183.92" font-family="Times New Roman,serif" font-size="14.00">{C &lt;: T_A[Char, Char], C &lt;: Char}</text>
</g>
<!-- 2 -->
<g id="node3" class="node">
<title>2</title>
<ellipse fill="none" stroke="blue" cx="282.98" cy="-135.54" rx="57.98" ry="27.93"/>
<text text-anchor="middle" x="282.98" y="-137.99" font-family="Times New Roman,serif" font-size="14.00">CC_A[C]</text>
<text text-anchor="middle" x="282.98" y="-122.24" font-family="Times New Roman,serif" font-size="14.00">Generics: C</text>
</g>
<!-- 6 -->
<g id="node7" class="node">
<title>6</title>
<ellipse fill="none" stroke="tomato" cx="353.98" cy="-27.93" rx="59.05" ry="18"/>
<text text-anchor="middle" x="353.98" y="-22.51" font-family="Times New Roman,serif" font-size="14.00">CC_A[Char]</text>
</g>
<!-- 2&#45;&gt;6 -->
<g id="edge15" class="edge">
<title>2&#45;&gt;6</title>
<path fill="none" stroke="black" d="M312.84,-111.4C319.82,-104.92 326.73,-97.48 331.98,-89.61 338.51,-79.82 343.39,-67.85 346.87,-57.14"/>
<polygon fill="black" stroke="black" points="350.2,-58.2 349.68,-47.62 343.49,-56.22 350.2,-58.2"/>
<text text-anchor="middle" x="378.11" y="-76.31" font-family="Times New Roman,serif" font-size="14.00">{C == Char}</text>
</g>
<!-- 1 -->
<g id="node4" class="node">
<title>1</title>
<ellipse fill="none" stroke="tomato" cx="439.98" cy="-458.38" rx="92.45" ry="27.93"/>
<text text-anchor="middle" x="439.98" y="-460.83" font-family="Times New Roman,serif" font-size="14.00">T_A[T_A[C, C], C]</text>
<text text-anchor="middle" x="439.98" y="-445.08" font-family="Times New Roman,serif" font-size="14.00">Generics: C</text>
</g>
<!-- 1&#45;&gt;3 -->
<g id="edge11" class="edge">
<title>1&#45;&gt;3</title>
<path fill="none" stroke="black" d="M349.11,-452.85C242.61,-446.6 78.13,-433.63 58.98,-412.45 53.51,-406.39 51.26,-398.44 50.78,-390.3"/>
<polygon fill="black" stroke="black" points="54.27,-390.45 51.08,-380.35 47.28,-390.24 54.27,-390.45"/>
<text text-anchor="middle" x="163.98" y="-399.15" font-family="Times New Roman,serif" font-size="14.00">{D == C, C == D, D == D, C == C}</text>
</g>
<!-- 1&#45;&gt;2 -->
<g id="edge1" class="edge">
<title>1&#45;&gt;2</title>
<path fill="none" stroke="black" d="M357.33,-445.47C338.07,-438.79 319.55,-428.45 306.98,-412.45 252.8,-343.47 263.65,-232.69 274.36,-174.71"/>
<polygon fill="black" stroke="black" points="277.78,-175.49 276.27,-165 270.91,-174.14 277.78,-175.49"/>
</g>
<!-- 1&#45;&gt;4 -->
<g id="edge18" class="edge">
<title>1&#45;&gt;4</title>
<path fill="none" stroke="black" d="M440.11,-430.24C441.61,-418.39 445.45,-405.27 454.48,-396.7 474.34,-377.83 534.92,-366.6 590.55,-360.09"/>
<polygon fill="black" stroke="black" points="590.91,-363.57 600.46,-358.97 590.13,-356.61 590.91,-363.57"/>
<text text-anchor="middle" x="559.73" y="-399.15" font-family="Times New Roman,serif" font-size="14.00">{T_A[C, C] &lt;: CC_A[Char], C &lt;: E}</text>
</g>
<!-- 1&#45;&gt;0 -->
<g id="edge6" class="edge">
<title>1&#45;&gt;0</title>
<path fill="none" stroke="black" d="M532.14,-455.63C755.03,-450.2 1304.98,-428.97 1304.98,-351.77 1304.98,-351.77 1304.98,-351.77 1304.98,-134.54 1304.98,-84.86 1161.59,-54.05 1068.92,-39.32"/>
<polygon fill="black" stroke="black" points="1069.51,-35.87 1059.09,-37.8 1068.44,-42.79 1069.51,-35.87"/>
<text text-anchor="middle" x="1379.61" y="-237.73" font-family="Times New Roman,serif" font-size="14.00">{T_A[C, C] &lt;: A, C &lt;: B}</text>
</g>
<!-- 1&#45;&gt;7 -->
<g id="edge19" class="edge">
<title>1&#45;&gt;7</title>
<path fill="none" stroke="black" d="M406.27,-431.91C368.53,-400.05 315.41,-343.11 337.73,-289.08 363.52,-226.68 384.97,-212.42 444.98,-181.47 488.23,-159.17 505.18,-172.56 552.98,-163.47 569.05,-160.42 586.22,-156.91 602.55,-153.46"/>
<polygon fill="black" stroke="black" points="603.17,-156.91 612.22,-151.4 601.71,-150.06 603.17,-156.91"/>
<text text-anchor="middle" x="375.11" y="-291.53" font-family="Times New Roman,serif" font-size="14.00">{C == Char}</text>
</g>
<!-- 4&#45;&gt;8 -->
<g id="edge4" class="edge">
<title>4&#45;&gt;8</title>
<path fill="none" stroke="black" d="M691.12,-322.51C687.75,-311.33 682.61,-298.77 674.98,-289.08 670.22,-283.04 664.4,-277.53 658.2,-272.61"/>
<polygon fill="black" stroke="black" points="660.28,-269.79 650.14,-266.71 656.15,-275.44 660.28,-269.79"/>
<text text-anchor="middle" x="763.48" y="-291.53" font-family="Times New Roman,serif" font-size="14.00">{E &lt;: C, CC_A[Char] &lt;: C}</text>
</g>
<!-- 4&#45;&gt;1 -->
<g id="edge12" class="edge">
<title>4&#45;&gt;1</title>
<path fill="none" stroke="black" d="M690.98,-378.88C686.97,-390.87 680.45,-404.11 669.98,-412.45 649.44,-428.8 591.15,-440.09 538.39,-447.26"/>
<polygon fill="black" stroke="black" points="538.19,-443.75 528.74,-448.53 539.11,-450.69 538.19,-443.75"/>
<text text-anchor="middle" x="787.73" y="-399.15" font-family="Times New Roman,serif" font-size="14.00">{CC_A[Char] &lt;: T_A[C, C], E &lt;: C}</text>
</g>
<!-- 5 -->
<g id="node6" class="node">
<title>5</title>
<ellipse fill="none" stroke="blue" cx="865.98" cy="-243.15" rx="56.92" ry="27.93"/>
<text text-anchor="middle" x="865.98" y="-245.6" font-family="Times New Roman,serif" font-size="14.00">CC_C[E]</text>
<text text-anchor="middle" x="865.98" y="-229.85" font-family="Times New Roman,serif" font-size="14.00">Generics: E</text>
</g>
<!-- 4&#45;&gt;5 -->
<g id="edge3" class="edge">
<title>4&#45;&gt;5</title>
<path fill="none" stroke="black" d="M785.96,-338.26C808.22,-331.6 830.45,-321.17 846.98,-304.83 853.21,-298.69 857.4,-290.53 860.22,-282.19"/>
<polygon fill="black" stroke="black" points="863.54,-283.32 862.8,-272.75 856.79,-281.48 863.54,-283.32"/>
</g>
<!-- 4&#45;&gt;0 -->
<g id="edge8" class="edge">
<title>4&#45;&gt;0</title>
<path fill="none" stroke="black" d="M792.62,-343.19C842.58,-334.36 899.84,-314.61 931.98,-271.08 956,-238.55 919.78,-210.69 947.73,-181.47 973.3,-154.75 1005.83,-192.32 1028.98,-163.47 1051.74,-135.13 1035.11,-93.79 1017.45,-64.43"/>
<polygon fill="black" stroke="black" points="1020.58,-62.84 1012.28,-56.25 1014.66,-66.57 1020.58,-62.84"/>
<text text-anchor="middle" x="1026.11" y="-183.92" font-family="Times New Roman,serif" font-size="14.00">{CC_A[Char] &lt;: A, E &lt;: B}</text>
</g>
<!-- 6&#45;&gt;2 -->
<g id="edge14" class="edge">
<title>6&#45;&gt;2</title>
<path fill="none" stroke="black" d="M306.91,-39.23C288.28,-45.85 268.73,-56.6 257.73,-73.86 252.81,-81.59 253.46,-90.45 256.68,-98.96"/>
<polygon fill="black" stroke="black" points="253.43,-100.3 261,-107.72 259.71,-97.2 253.43,-100.3"/>
<text text-anchor="middle" x="295.11" y="-76.31" font-family="Times New Roman,serif" font-size="14.00">{C == Char}</text>
</g>
<!-- 0&#45;&gt;8 -->
<g id="edge10" class="edge">
<title>0&#45;&gt;8</title>
<path fill="none" stroke="black" d="M970.08,-54.9C958.09,-69.78 943.44,-89.13 932.23,-107.61 909.4,-145.26 925.2,-170.79 889.98,-197.22 881.73,-203.42 765.26,-220.46 684.34,-231.68"/>
<polygon fill="black" stroke="black" points="684.1,-228.18 674.67,-233.02 685.06,-235.12 684.1,-228.18"/>
<text text-anchor="middle" x="980.36" y="-130.12" font-family="Times New Roman,serif" font-size="14.00">{A &lt;: C, B &lt;: C}</text>
</g>
<!-- 0&#45;&gt;1 -->
<g id="edge5" class="edge">
<title>0&#45;&gt;1</title>
<path fill="none" stroke="black" d="M1062.01,-29.36C1199.18,-32.1 1489.98,-48.09 1489.98,-134.54 1489.98,-351.77 1489.98,-351.77 1489.98,-351.77 1489.98,-446.19 809,-457.03 543.87,-457.66"/>
<polygon fill="black" stroke="black" points="544.21,-454.16 534.22,-457.68 544.22,-461.16 544.21,-454.16"/>
<text text-anchor="middle" x="1564.61" y="-237.73" font-family="Times New Roman,serif" font-size="14.00">{A &lt;: T_A[C, C], B &lt;: C}</text>
</g>
<!-- 0&#45;&gt;4 -->
<g id="edge7" class="edge">
<title>0&#45;&gt;4</title>
<path fill="none" stroke="black" d="M1031.4,-51.42C1040.55,-57.86 1049.72,-65.45 1056.98,-73.86 1142.67,-173.19 1130.92,-155.61 1109.98,-197.22 1055.51,-305.48 910.08,-338.16 807.27,-347.34"/>
<polygon fill="black" stroke="black" points="807.08,-343.85 797.4,-348.16 807.65,-350.82 807.08,-343.85"/>
<text text-anchor="middle" x="1197.11" y="-183.92" font-family="Times New Roman,serif" font-size="14.00">{B &lt;: E, A &lt;: CC_A[Char]}</text>
</g>
<!-- 0&#45;&gt;7 -->
<g id="edge9" class="edge">
<title>0&#45;&gt;7</title>
<path fill="none" stroke="black" d="M922.25,-30.25C793.88,-33.39 530.67,-43.51 502.98,-73.86 498.26,-79.03 498.69,-84.08 502.98,-89.61 509.21,-97.63 553.72,-108.95 596.41,-118.22"/>
<polygon fill="black" stroke="black" points="595.5,-121.61 606.01,-120.28 596.97,-114.76 595.5,-121.61"/>
<text text-anchor="middle" x="603.48" y="-76.31" font-family="Times New Roman,serif" font-size="14.00">{A &lt;: T_A[Char, Char], B &lt;: Char}</text>
</g>
<!-- 7&#45;&gt;8 -->
<g id="edge22" class="edge">
<title>7&#45;&gt;8</title>
<path fill="none" stroke="black" d="M609.5,-150.66C550.65,-162.77 475.46,-178.71 473.23,-181.47 451.99,-207.85 488.8,-223.19 529.13,-231.85"/>
<polygon fill="black" stroke="black" points="528.3,-235.25 538.79,-233.77 529.66,-228.39 528.3,-235.25"/>
<text text-anchor="middle" x="573.86" y="-183.92" font-family="Times New Roman,serif" font-size="14.00">{Char &lt;: C, T_A[Char, Char] &lt;: C}</text>
</g>
<!-- 7&#45;&gt;1 -->
<g id="edge13" class="edge">
<title>7&#45;&gt;1</title>
<path fill="none" stroke="black" d="M612.32,-150.96C593.17,-155.06 572.26,-159.49 552.98,-163.47 513.04,-171.74 493.38,-154.27 462.98,-181.47 396.7,-240.8 414.23,-358.54 429.04,-419.24"/>
<polygon fill="black" stroke="black" points="425.6,-419.94 431.47,-428.76 432.39,-418.21 425.6,-419.94"/>
<text text-anchor="middle" x="454.11" y="-291.53" font-family="Times New Roman,serif" font-size="14.00">{C == Char}</text>
</g>
<!-- 7&#45;&gt;6 -->
<g id="edge16" class="edge">
<title>7&#45;&gt;6</title>
<path fill="none" stroke="black" d="M609.18,-120.38C574.46,-112.61 532.09,-102.03 494.98,-89.61 460.25,-77.99 422.17,-61.35 394.35,-48.44"/>
<polygon fill="black" stroke="black" points="396.13,-45.41 385.59,-44.33 393.16,-51.75 396.13,-45.41"/>
</g>
<!-- 7&#45;&gt;0 -->
<g id="edge2" class="edge">
<title>7&#45;&gt;0</title>
<path fill="none" stroke="black" d="M687.66,-117.23C695.65,-103.2 708.83,-84.13 725.98,-73.86 756.8,-55.41 846.17,-42.94 912.87,-35.91"/>
<polygon fill="black" stroke="black" points="913.11,-39.4 922.7,-34.9 912.39,-32.44 913.11,-39.4"/>
<text text-anchor="middle" x="826.48" y="-76.31" font-family="Times New Roman,serif" font-size="14.00">{T_A[Char, Char] &lt;: A, Char &lt;: B}</text>
</g>
</g>
</svg>
