<?xml version="1.0" encoding="UTF-8" standalone="no"?>
<!DOCTYPE svg PUBLIC "-//W3C//DTD SVG 1.1//EN"
 "http://www.w3.org/Graphics/SVG/1.1/DTD/svg11.dtd">
<!-- Generated by graphviz version 2.43.0 (0)
 -->
<!-- Title: Type_Graph Pages: 1 -->
<svg width="4922pt" height="271pt"
 viewBox="0.00 0.00 4921.90 271.22" xmlns="http://www.w3.org/2000/svg" xmlns:xlink="http://www.w3.org/1999/xlink">
<g id="graph0" class="graph" transform="scale(1 1) rotate(0) translate(4 267.22)">
<title>Type_Graph</title>
<polygon fill="white" stroke="transparent" points="-4,4 -4,-267.22 4917.9,-267.22 4917.9,4 -4,4"/>
<!-- 13 -->
<g id="node1" class="node">
<title>13</title>
<ellipse fill="none" stroke="blue" cx="502.9" cy="-26.87" rx="69.09" ry="26.74"/>
<text text-anchor="middle" x="502.9" y="-30.67" font-family="Times,serif" font-size="14.00">R_I&lt;P&gt;</text>
<text text-anchor="middle" x="502.9" y="-15.67" font-family="Times,serif" font-size="14.00">Generics: P</text>
</g>
<!-- 5 -->
<g id="node2" class="node">
<title>5</title>
<ellipse fill="none" stroke="blue" cx="313.9" cy="-26.87" rx="66.44" ry="26.74"/>
<text text-anchor="middle" x="313.9" y="-30.67" font-family="Times,serif" font-size="14.00">R_C&lt;I&gt;</text>
<text text-anchor="middle" x="313.9" y="-15.67" font-family="Times,serif" font-size="14.00">Generics: I</text>
</g>
<!-- 6 -->
<g id="node3" class="node">
<title>6</title>
<ellipse fill="none" stroke="blue" cx="79.9" cy="-26.87" rx="79.81" ry="26.74"/>
<text text-anchor="middle" x="79.9" y="-30.67" font-family="Times,serif" font-size="14.00">R_D&lt;K, J&gt;</text>
<text text-anchor="middle" x="79.9" y="-15.67" font-family="Times,serif" font-size="14.00">Generics: J ,K</text>
</g>
<!-- 0 -->
<g id="node4" class="node">
<title>0</title>
<ellipse fill="none" stroke="blue" cx="4696.9" cy="-236.35" rx="83.38" ry="26.74"/>
<text text-anchor="middle" x="4696.9" y="-240.15" font-family="Times,serif" font-size="14.00">I_A&lt;A, B&gt;</text>
<text text-anchor="middle" x="4696.9" y="-225.15" font-family="Times,serif" font-size="14.00">Generics: A ,B</text>
</g>
<!-- 2 -->
<g id="node8" class="node">
<title>2</title>
<ellipse fill="none" stroke="blue" cx="4603.9" cy="-131.61" rx="83.38" ry="26.74"/>
<text text-anchor="middle" x="4603.9" y="-135.41" font-family="Times,serif" font-size="14.00">R_A&lt;E, F&gt;</text>
<text text-anchor="middle" x="4603.9" y="-120.41" font-family="Times,serif" font-size="14.00">Generics: E ,F</text>
</g>
<!-- 0&#45;&gt;2 -->
<g id="edge5" class="edge">
<title>0&#45;&gt;2</title>
<path fill="none" stroke="black" d="M4658.5,-212.43C4650.09,-206.31 4641.68,-199.21 4634.9,-191.48 4628.64,-184.34 4623.2,-175.71 4618.7,-167.28"/>
<polygon fill="black" stroke="black" points="4621.81,-165.67 4614.2,-158.3 4615.55,-168.81 4621.81,-165.67"/>
<text text-anchor="middle" x="4701.9" y="-180.28" font-family="Times,serif" font-size="14.00">{A == E, B == F}</text>
</g>
<!-- 3 -->
<g id="node10" class="node">
<title>3</title>
<ellipse fill="none" stroke="blue" cx="4790.9" cy="-131.61" rx="85.62" ry="26.74"/>
<text text-anchor="middle" x="4790.9" y="-135.41" font-family="Times,serif" font-size="14.00">R_B&lt;G, H&gt;</text>
<text text-anchor="middle" x="4790.9" y="-120.41" font-family="Times,serif" font-size="14.00">Generics: G ,H</text>
</g>
<!-- 0&#45;&gt;3 -->
<g id="edge12" class="edge">
<title>0&#45;&gt;3</title>
<path fill="none" stroke="black" d="M4742.75,-213.74C4752.35,-207.6 4761.72,-200.17 4768.9,-191.48 4774.5,-184.71 4778.75,-176.38 4781.95,-168.13"/>
<polygon fill="black" stroke="black" points="4785.29,-169.19 4785.24,-158.59 4778.67,-166.91 4785.29,-169.19"/>
<text text-anchor="middle" x="4845.9" y="-180.28" font-family="Times,serif" font-size="14.00">{A == G, B == H}</text>
</g>
<!-- 8 -->
<g id="node5" class="node">
<title>8</title>
<ellipse fill="none" stroke="blue" cx="3980.9" cy="-26.87" rx="69.09" ry="26.74"/>
<text text-anchor="middle" x="3980.9" y="-30.67" font-family="Times,serif" font-size="14.00">R_E&lt;L&gt;</text>
<text text-anchor="middle" x="3980.9" y="-15.67" font-family="Times,serif" font-size="14.00">Generics: L</text>
</g>
<!-- 1 -->
<g id="node6" class="node">
<title>1</title>
<ellipse fill="none" stroke="blue" cx="2526.9" cy="-236.35" rx="84.29" ry="26.74"/>
<text text-anchor="middle" x="2526.9" y="-240.15" font-family="Times,serif" font-size="14.00">I_B&lt;C, D&gt;</text>
<text text-anchor="middle" x="2526.9" y="-225.15" font-family="Times,serif" font-size="14.00">Generics: C ,D</text>
</g>
<!-- 1&#45;&gt;13 -->
<g id="edge16" class="edge">
<title>1&#45;&gt;13</title>
<path fill="none" stroke="black" d="M2442.73,-235.61C2062.09,-236.37 517.36,-234.74 450.9,-158.48 426.21,-130.14 450.05,-88.62 472.96,-60.04"/>
<polygon fill="black" stroke="black" points="475.66,-62.28 479.36,-52.35 470.28,-57.8 475.66,-62.28"/>
<text text-anchor="middle" x="550.4" y="-127.91" font-family="Times,serif" font-size="14.00">{C == P, D == R_B&lt;P, P&gt;}</text>
</g>
<!-- 1&#45;&gt;5 -->
<g id="edge21" class="edge">
<title>1&#45;&gt;5</title>
<path fill="none" stroke="black" d="M2442.72,-235.45C2040.39,-235.58 329.44,-231.78 244.9,-158.48 215.01,-132.56 204.01,-105.33 224.9,-71.74 231.23,-61.57 240.68,-53.69 251.1,-47.6"/>
<polygon fill="black" stroke="black" points="252.81,-50.65 260.03,-42.9 249.55,-44.46 252.81,-50.65"/>
<text text-anchor="middle" x="340.9" y="-127.91" font-family="Times,serif" font-size="14.00">{C == I, D == R_B&lt;I, I&gt;}</text>
</g>
<!-- 1&#45;&gt;6 -->
<g id="edge19" class="edge">
<title>1&#45;&gt;6</title>
<path fill="none" stroke="black" d="M2442.66,-235.04C2091.05,-233.55 739.08,-225.68 313.9,-191.48 209.65,-183.1 149.78,-237.19 80.9,-158.48 58.53,-132.91 62,-92.53 68.73,-63.44"/>
<polygon fill="black" stroke="black" points="72.15,-64.21 71.21,-53.66 65.36,-62.49 72.15,-64.21"/>
<text text-anchor="middle" x="145.9" y="-127.91" font-family="Times,serif" font-size="14.00">{C == J, D == K}</text>
</g>
<!-- 1&#45;&gt;8 -->
<g id="edge3" class="edge">
<title>1&#45;&gt;8</title>
<path fill="none" stroke="black" d="M2611.11,-235.79C2810.17,-236.08 3325.17,-232.43 3752.9,-191.48 3847.39,-182.43 3878.54,-199.99 3963.9,-158.48 4005.97,-138.03 4022.24,-129.63 4040.9,-86.74 4046.1,-74.8 4040.38,-64.03 4030.72,-55.06"/>
<polygon fill="black" stroke="black" points="4032.67,-52.13 4022.69,-48.57 4028.27,-57.58 4032.67,-52.13"/>
<text text-anchor="middle" x="4130.9" y="-127.91" font-family="Times,serif" font-size="14.00">{C == L, D == I_B&lt;L, L&gt;}</text>
</g>
<!-- 4 -->
<g id="node7" class="node">
<title>4</title>
<ellipse fill="none" stroke="tomato" cx="763.9" cy="-131.61" rx="105.22" ry="26.74"/>
<text text-anchor="middle" x="763.9" y="-135.41" font-family="Times,serif" font-size="14.00">I_B&lt;I, R_B&lt;I, I&gt;&gt;</text>
<text text-anchor="middle" x="763.9" y="-120.41" font-family="Times,serif" font-size="14.00">Generics: I</text>
</g>
<!-- 1&#45;&gt;4 -->
<g id="edge6" class="edge">
<title>1&#45;&gt;4</title>
<path fill="none" stroke="black" d="M2442.77,-234.92C2087.86,-232.89 729.74,-223.07 698.9,-191.48 689.04,-181.38 694.85,-170.88 706.26,-161.59"/>
<polygon fill="black" stroke="black" points="708.4,-164.36 714.47,-155.67 704.31,-158.68 708.4,-164.36"/>
<text text-anchor="middle" x="794.9" y="-180.28" font-family="Times,serif" font-size="14.00">{C == I, D == R_B&lt;I, I&gt;}</text>
</g>
<!-- 7 -->
<g id="node9" class="node">
<title>7</title>
<ellipse fill="none" stroke="tomato" cx="3844.9" cy="-131.61" rx="109.7" ry="26.74"/>
<text text-anchor="middle" x="3844.9" y="-135.41" font-family="Times,serif" font-size="14.00">I_B&lt;L, I_B&lt;L, L&gt;&gt;</text>
<text text-anchor="middle" x="3844.9" y="-120.41" font-family="Times,serif" font-size="14.00">Generics: L</text>
</g>
<!-- 1&#45;&gt;7 -->
<g id="edge14" class="edge">
<title>1&#45;&gt;7</title>
<path fill="none" stroke="black" d="M2610.68,-233.74C2769.31,-230.13 3124.33,-219.42 3421.9,-191.48 3533.21,-181.03 3660.14,-162.47 3745.68,-148.97"/>
<polygon fill="black" stroke="black" points="3746.31,-152.42 3755.64,-147.4 3745.22,-145.5 3746.31,-152.42"/>
<text text-anchor="middle" x="3649.9" y="-180.28" font-family="Times,serif" font-size="14.00">{C == L, D == I_B&lt;L, L&gt;}</text>
</g>
<!-- 9 -->
<g id="node11" class="node">
<title>9</title>
<ellipse fill="none" stroke="blue" cx="4238.9" cy="-26.87" rx="72.66" ry="26.74"/>
<text text-anchor="middle" x="4238.9" y="-30.67" font-family="Times,serif" font-size="14.00">R_F&lt;M&gt;</text>
<text text-anchor="middle" x="4238.9" y="-15.67" font-family="Times,serif" font-size="14.00">Generics: M</text>
</g>
<!-- 1&#45;&gt;9 -->
<g id="edge10" class="edge">
<title>1&#45;&gt;9</title>
<path fill="none" stroke="black" d="M2610.94,-234.1C2820.35,-230.64 3382.2,-219.31 3849.9,-191.48 4020.9,-181.3 4115.69,-282.44 4233.9,-158.48 4257.44,-133.8 4255.06,-93.09 4249.09,-63.67"/>
<polygon fill="black" stroke="black" points="4252.47,-62.77 4246.86,-53.78 4245.65,-64.3 4252.47,-62.77"/>
<text text-anchor="middle" x="4360.9" y="-127.91" font-family="Times,serif" font-size="14.00">{D == I_B&lt;M, M&gt;, C == M}</text>
</g>
<!-- 14 -->
<g id="node12" class="node">
<title>14</title>
<ellipse fill="none" stroke="blue" cx="675.9" cy="-26.87" rx="70.92" ry="26.74"/>
<text text-anchor="middle" x="675.9" y="-30.67" font-family="Times,serif" font-size="14.00">R_J&lt;Q&gt;</text>
<text text-anchor="middle" x="675.9" y="-15.67" font-family="Times,serif" font-size="14.00">Generics: Q</text>
</g>
<!-- 1&#45;&gt;14 -->
<g id="edge7" class="edge">
<title>1&#45;&gt;14</title>
<path fill="none" stroke="black" d="M2445.8,-228.95C2091.16,-200.94 694.14,-90.38 689.9,-86.74 683.2,-80.99 679.39,-72.66 677.29,-64.07"/>
<polygon fill="black" stroke="black" points="680.71,-63.27 675.55,-54.01 673.81,-64.46 680.71,-63.27"/>
<text text-anchor="middle" x="1654.4" y="-127.91" font-family="Times,serif" font-size="14.00">{D == R_B&lt;Q, Q&gt;, C == Q}</text>
</g>
<!-- 11 -->
<g id="node13" class="node">
<title>11</title>
<ellipse fill="none" stroke="blue" cx="2961.9" cy="-26.87" rx="71.34" ry="26.74"/>
<text text-anchor="middle" x="2961.9" y="-30.67" font-family="Times,serif" font-size="14.00">R_G&lt;N&gt;</text>
<text text-anchor="middle" x="2961.9" y="-15.67" font-family="Times,serif" font-size="14.00">Generics: N</text>
</g>
<!-- 1&#45;&gt;11 -->
<g id="edge24" class="edge">
<title>1&#45;&gt;11</title>
<path fill="none" stroke="black" d="M2600.49,-223.21C2638.98,-215.88 2686.57,-205.27 2727.9,-191.48 2834.07,-156.07 2892.49,-178.26 2956.9,-86.74 2961.55,-80.13 2963.81,-72.02 2964.72,-63.96"/>
<polygon fill="black" stroke="black" points="2968.22,-64.04 2965.21,-53.88 2961.23,-63.69 2968.22,-64.04"/>
<text text-anchor="middle" x="3041.9" y="-127.91" font-family="Times,serif" font-size="14.00">{D == N, C == Character}</text>
</g>
<!-- 12 -->
<g id="node14" class="node">
<title>12</title>
<ellipse fill="none" stroke="blue" cx="3407.9" cy="-26.87" rx="70.92" ry="26.74"/>
<text text-anchor="middle" x="3407.9" y="-30.67" font-family="Times,serif" font-size="14.00">R_H&lt;O&gt;</text>
<text text-anchor="middle" x="3407.9" y="-15.67" font-family="Times,serif" font-size="14.00">Generics: O</text>
</g>
<!-- 1&#45;&gt;12 -->
<g id="edge1" class="edge">
<title>1&#45;&gt;12</title>
<path fill="none" stroke="black" d="M2608.55,-229.3C2727.44,-219.56 2954.78,-197.44 3144.9,-158.48 3257.73,-135.36 3314.4,-170.07 3393.9,-86.74 3399.9,-80.46 3403.48,-72.09 3405.58,-63.65"/>
<polygon fill="black" stroke="black" points="3409.02,-64.29 3407.43,-53.82 3402.14,-63 3409.02,-64.29"/>
<text text-anchor="middle" x="3475.9" y="-127.91" font-family="Times,serif" font-size="14.00">{D == I_B&lt;O, O&gt;, C == O}</text>
</g>
<!-- 10 -->
<g id="node15" class="node">
<title>10</title>
<ellipse fill="none" stroke="tomato" cx="2526.9" cy="-131.61" rx="108.79" ry="26.74"/>
<text text-anchor="middle" x="2526.9" y="-135.41" font-family="Times,serif" font-size="14.00">I_B&lt;Character, N&gt;</text>
<text text-anchor="middle" x="2526.9" y="-120.41" font-family="Times,serif" font-size="14.00">Generics: N</text>
</g>
<!-- 1&#45;&gt;10 -->
<g id="edge4" class="edge">
<title>1&#45;&gt;10</title>
<path fill="none" stroke="black" d="M2526.9,-209.42C2526.9,-197.14 2526.9,-182.25 2526.9,-168.86"/>
<polygon fill="black" stroke="black" points="2530.4,-168.53 2526.9,-158.53 2523.4,-168.53 2530.4,-168.53"/>
<text text-anchor="middle" x="2625.4" y="-180.28" font-family="Times,serif" font-size="14.00">{C == Character, D == N}</text>
</g>
<!-- 4&#45;&gt;13 -->
<g id="edge20" class="edge">
<title>4&#45;&gt;13</title>
<path fill="none" stroke="black" d="M687.25,-113.09C673.2,-110.13 658.64,-107.21 644.9,-104.74 617.07,-99.73 540.1,-105.47 518.9,-86.74 512.23,-80.84 508.21,-72.47 505.83,-63.88"/>
<polygon fill="black" stroke="black" points="509.2,-62.9 503.72,-53.83 502.35,-64.34 509.2,-62.9"/>
<text text-anchor="middle" x="552.4" y="-75.54" font-family="Times,serif" font-size="14.00">{I == P}</text>
</g>
<!-- 4&#45;&gt;5 -->
<g id="edge8" class="edge">
<title>4&#45;&gt;5</title>
<path fill="none" stroke="black" d="M687.6,-113C673.44,-110.03 658.76,-107.13 644.9,-104.74 583.08,-94.07 566.21,-100.03 504.9,-86.74 459.61,-76.92 409.59,-61.33 372.1,-48.65"/>
<polygon fill="black" stroke="black" points="372.96,-45.25 362.36,-45.33 370.7,-51.87 372.96,-45.25"/>
</g>
<!-- 4&#45;&gt;6 -->
<g id="edge25" class="edge">
<title>4&#45;&gt;6</title>
<path fill="none" stroke="black" d="M689.65,-112.46C674.9,-109.43 659.47,-106.65 644.9,-104.74 473.73,-82.33 426.63,-118.28 256.9,-86.74 216.48,-79.23 172.61,-64.69 138.66,-51.94"/>
<polygon fill="black" stroke="black" points="139.5,-48.51 128.91,-48.22 137.01,-55.05 139.5,-48.51"/>
<text text-anchor="middle" x="349.9" y="-75.54" font-family="Times,serif" font-size="14.00">{R_B&lt;I, I&gt; == K, I == J}</text>
</g>
<!-- 4&#45;&gt;14 -->
<g id="edge23" class="edge">
<title>4&#45;&gt;14</title>
<path fill="none" stroke="black" d="M687.49,-113.08C643.81,-102.7 597.04,-90.79 593.9,-86.74 582.32,-71.79 595.07,-58.98 613.7,-49.17"/>
<polygon fill="black" stroke="black" points="615.43,-52.22 622.92,-44.74 612.39,-45.92 615.43,-52.22"/>
<text text-anchor="middle" x="627.9" y="-75.54" font-family="Times,serif" font-size="14.00">{I == Q}</text>
</g>
<!-- 4&#45;&gt;11 -->
<g id="edge13" class="edge">
<title>4&#45;&gt;11</title>
<path fill="none" stroke="black" d="M837.83,-112.43C852.67,-109.38 868.22,-106.6 882.9,-104.74 934.75,-98.16 1303.87,-104.82 1352.9,-86.74 1363,-83.02 1361.79,-75.41 1371.9,-71.74 1443.25,-45.86 2564.99,-32.07 2880.13,-28.7"/>
<polygon fill="black" stroke="black" points="2880.59,-32.19 2890.55,-28.59 2880.51,-25.19 2880.59,-32.19"/>
<text text-anchor="middle" x="1818.4" y="-75.54" font-family="Times,serif" font-size="14.00">{N == R_B&lt;Character, Character&gt;, I == Character, R_B&lt;Character, Character&gt; == N, R_B&lt;Character, Character&gt; == N}</text>
</g>
<!-- 7&#45;&gt;8 -->
<g id="edge2" class="edge">
<title>7&#45;&gt;8</title>
<path fill="none" stroke="black" d="M3887.96,-106.78C3898.06,-100.65 3908.58,-93.78 3917.9,-86.74 3928.85,-78.48 3940.04,-68.59 3949.88,-59.29"/>
<polygon fill="black" stroke="black" points="3952.34,-61.79 3957.13,-52.34 3947.49,-56.74 3952.34,-61.79"/>
</g>
<!-- 7&#45;&gt;9 -->
<g id="edge9" class="edge">
<title>7&#45;&gt;9</title>
<path fill="none" stroke="black" d="M3918.09,-111.53C3990.46,-92.65 4100.32,-64.01 4170.85,-45.61"/>
<polygon fill="black" stroke="black" points="4171.74,-49 4180.54,-43.09 4169.98,-42.23 4171.74,-49"/>
<text text-anchor="middle" x="4103.4" y="-75.54" font-family="Times,serif" font-size="14.00">{L == M}</text>
</g>
<!-- 7&#45;&gt;11 -->
<g id="edge18" class="edge">
<title>7&#45;&gt;11</title>
<path fill="none" stroke="black" d="M3747.15,-119.31C3706.56,-114.69 3658.97,-109.35 3615.9,-104.74 3536.84,-96.28 3515.33,-104.85 3437.9,-86.74 3419.42,-82.42 3416.39,-76.06 3397.9,-71.74 3276.4,-43.35 3131.63,-33.33 3043.28,-29.8"/>
<polygon fill="black" stroke="black" points="3043.18,-26.29 3033.05,-29.41 3042.91,-33.29 3043.18,-26.29"/>
<text text-anchor="middle" x="3628.4" y="-75.54" font-family="Times,serif" font-size="14.00">{L == Character, N == I_B&lt;Character, Character&gt;}</text>
</g>
<!-- 7&#45;&gt;12 -->
<g id="edge15" class="edge">
<title>7&#45;&gt;12</title>
<path fill="none" stroke="black" d="M3841.49,-104.61C3838.55,-92.75 3833.08,-79.63 3822.9,-71.74 3797.05,-51.71 3601.24,-38.11 3488.06,-31.84"/>
<polygon fill="black" stroke="black" points="3488.22,-28.34 3478.05,-31.29 3487.84,-35.33 3488.22,-28.34"/>
<text text-anchor="middle" x="3870.9" y="-75.54" font-family="Times,serif" font-size="14.00">{L == O}</text>
</g>
<!-- 10&#45;&gt;13 -->
<g id="edge22" class="edge">
<title>10&#45;&gt;13</title>
<path fill="none" stroke="black" d="M2418.45,-128.9C2039.69,-122.81 794.12,-101.75 709.9,-86.74 689.56,-83.12 685.7,-77.65 665.9,-71.74 635.12,-62.55 626.93,-62.04 595.9,-53.74 586.77,-51.3 577.15,-48.67 567.69,-46.07"/>
<polygon fill="black" stroke="black" points="568.5,-42.66 557.93,-43.37 566.64,-49.41 568.5,-42.66"/>
<text text-anchor="middle" x="1031.4" y="-75.54" font-family="Times,serif" font-size="14.00">{P == Character, N == R_B&lt;Character, Character&gt;, N == R_B&lt;Character, Character&gt;}</text>
</g>
<!-- 10&#45;&gt;14 -->
<g id="edge17" class="edge">
<title>10&#45;&gt;14</title>
<path fill="none" stroke="black" d="M2423.91,-122.79C2380.48,-116.71 2330.28,-105.91 2287.9,-86.74 2278.1,-82.3 2279.02,-75.41 2268.9,-71.74 2197.36,-45.79 1071.67,-32.04 757.04,-28.69"/>
<polygon fill="black" stroke="black" points="756.67,-25.18 746.63,-28.58 756.59,-32.18 756.67,-25.18"/>
<text text-anchor="middle" x="2609.9" y="-75.54" font-family="Times,serif" font-size="14.00">{Q == Character, N == R_B&lt;Character, Character&gt;, N == R_B&lt;Character, Character&gt;}</text>
</g>
<!-- 10&#45;&gt;11 -->
<g id="edge11" class="edge">
<title>10&#45;&gt;11</title>
<path fill="none" stroke="black" d="M2635.87,-130.96C2740.61,-129.21 2889.62,-120.54 2935.9,-86.74 2943.72,-81.03 2949.23,-72.44 2953.09,-63.57"/>
<polygon fill="black" stroke="black" points="2956.45,-64.56 2956.66,-53.97 2949.89,-62.12 2956.45,-64.56"/>
</g>
<!-- 10&#45;&gt;12 -->
<g id="edge26" class="edge">
<title>10&#45;&gt;12</title>
<path fill="none" stroke="black" d="M2632.82,-125.11C2720.33,-119.29 2847.5,-107.92 2956.9,-86.74 2980.52,-82.17 2985.31,-76.4 3008.9,-71.74 3118.39,-50.1 3247.04,-38.36 3328.03,-32.61"/>
<polygon fill="black" stroke="black" points="3328.42,-36.09 3338.16,-31.91 3327.94,-29.11 3328.42,-36.09"/>
<text text-anchor="middle" x="3201.4" y="-75.54" font-family="Times,serif" font-size="14.00">{N == I_B&lt;Character, Character&gt;, O == Character}</text>
</g>
</g>
</svg>
