<?xml version="1.0" encoding="UTF-8" standalone="no"?>
<!DOCTYPE svg PUBLIC "-//W3C//DTD SVG 1.1//EN"
 "http://www.w3.org/Graphics/SVG/1.1/DTD/svg11.dtd">
<!-- Generated by graphviz version 10.0.1 (20240210.2158)
 -->
<!-- Title: Type_Graph Pages: 1 -->
<svg width="1406pt" height="156pt"
 viewBox="0.00 0.00 1406.31 155.72" xmlns="http://www.w3.org/2000/svg" xmlns:xlink="http://www.w3.org/1999/xlink">
<g id="graph0" class="graph" transform="scale(1 1) rotate(0) translate(4 151.72)">
<title>Type_Graph</title>
<polygon fill="white" stroke="none" points="-4,4 -4,-151.72 1402.31,-151.72 1402.31,4 -4,4"/>
<!-- 3 -->
<g id="node1" class="node">
<title>3</title>
<ellipse fill="none" stroke="blue" cx="129.58" cy="-27.93" rx="129.58" ry="27.93"/>
<text text-anchor="middle" x="129.58" y="-30.38" font-family="Times New Roman,serif" font-size="14.00">C_B a (B_A Bool Bool) Char</text>
<text text-anchor="middle" x="129.58" y="-14.63" font-family="Times New Roman,serif" font-size="14.00">Generics: a ,b</text>
</g>
<!-- 7 -->
<g id="node2" class="node">
<title>7</title>
<ellipse fill="none" stroke="blue" cx="881.58" cy="-27.93" rx="129.58" ry="27.93"/>
<text text-anchor="middle" x="881.58" y="-30.38" font-family="Times New Roman,serif" font-size="14.00">C_F (B_A d c) (B_A Char d)</text>
<text text-anchor="middle" x="881.58" y="-14.63" font-family="Times New Roman,serif" font-size="14.00">Generics: c ,d</text>
</g>
<!-- 1 -->
<g id="node3" class="node">
<title>1</title>
<ellipse fill="none" stroke="blue" cx="1047.58" cy="-119.79" rx="66.47" ry="27.93"/>
<text text-anchor="middle" x="1047.58" y="-122.24" font-family="Times New Roman,serif" font-size="14.00">B_B c d</text>
<text text-anchor="middle" x="1047.58" y="-106.49" font-family="Times New Roman,serif" font-size="14.00">Generics: c ,d</text>
</g>
<!-- 1&#45;&gt;7 -->
<g id="edge3" class="edge">
<title>1&#45;&gt;7</title>
<path fill="none" stroke="black" d="M1007.82,-97.27C987.1,-86.05 961.39,-72.13 938.59,-59.79"/>
<polygon fill="black" stroke="black" points="940.47,-56.83 930.01,-55.15 937.14,-62.99 940.47,-56.83"/>
</g>
<!-- 6 -->
<g id="node4" class="node">
<title>6</title>
<ellipse fill="none" stroke="blue" cx="1213.58" cy="-27.93" rx="184.73" ry="27.93"/>
<text text-anchor="middle" x="1213.58" y="-30.38" font-family="Times New Roman,serif" font-size="14.00">C_E (B_A Char c) (B_B c c) (B_A Bool c)</text>
<text text-anchor="middle" x="1213.58" y="-14.63" font-family="Times New Roman,serif" font-size="14.00">Generics: c ,d</text>
</g>
<!-- 1&#45;&gt;6 -->
<g id="edge5" class="edge">
<title>1&#45;&gt;6</title>
<path fill="none" stroke="black" d="M1087.34,-97.27C1107.55,-86.33 1132.51,-72.82 1154.88,-60.7"/>
<polygon fill="black" stroke="black" points="1156.5,-63.81 1163.62,-55.97 1153.16,-57.65 1156.5,-63.81"/>
</g>
<!-- 4 -->
<g id="node5" class="node">
<title>4</title>
<ellipse fill="none" stroke="blue" cx="348.58" cy="-27.93" rx="71.24" ry="27.93"/>
<text text-anchor="middle" x="348.58" y="-30.38" font-family="Times New Roman,serif" font-size="14.00">C_C (B_B a a)</text>
<text text-anchor="middle" x="348.58" y="-14.63" font-family="Times New Roman,serif" font-size="14.00">Generics: a ,b</text>
</g>
<!-- 0 -->
<g id="node6" class="node">
<title>0</title>
<ellipse fill="none" stroke="blue" cx="429.58" cy="-119.79" rx="65.94" ry="27.93"/>
<text text-anchor="middle" x="429.58" y="-122.24" font-family="Times New Roman,serif" font-size="14.00">B_A a b</text>
<text text-anchor="middle" x="429.58" y="-106.49" font-family="Times New Roman,serif" font-size="14.00">Generics: a ,b</text>
</g>
<!-- 0&#45;&gt;3 -->
<g id="edge4" class="edge">
<title>0&#45;&gt;3</title>
<path fill="none" stroke="black" d="M376.29,-102.83C331.57,-89.43 266.85,-70.05 214.92,-54.49"/>
<polygon fill="black" stroke="black" points="216.08,-51.19 205.5,-51.67 214.07,-57.89 216.08,-51.19"/>
</g>
<!-- 0&#45;&gt;4 -->
<g id="edge6" class="edge">
<title>0&#45;&gt;4</title>
<path fill="none" stroke="black" d="M406.58,-93.28C398.03,-83.8 388.19,-72.88 379.07,-62.76"/>
<polygon fill="black" stroke="black" points="381.94,-60.71 372.64,-55.63 376.74,-65.4 381.94,-60.71"/>
</g>
<!-- 2 -->
<g id="node7" class="node">
<title>2</title>
<ellipse fill="none" stroke="blue" cx="510.58" cy="-27.93" rx="72.83" ry="27.93"/>
<text text-anchor="middle" x="510.58" y="-30.38" font-family="Times New Roman,serif" font-size="14.00">C_A (B_A a b)</text>
<text text-anchor="middle" x="510.58" y="-14.63" font-family="Times New Roman,serif" font-size="14.00">Generics: a ,b</text>
</g>
<!-- 0&#45;&gt;2 -->
<g id="edge2" class="edge">
<title>0&#45;&gt;2</title>
<path fill="none" stroke="black" d="M452.57,-93.28C460.96,-83.97 470.6,-73.28 479.57,-63.33"/>
<polygon fill="black" stroke="black" points="482.13,-65.71 486.23,-55.94 476.94,-61.03 482.13,-65.71"/>
</g>
<!-- 5 -->
<g id="node8" class="node">
<title>5</title>
<ellipse fill="none" stroke="blue" cx="667.58" cy="-27.93" rx="65.94" ry="27.93"/>
<text text-anchor="middle" x="667.58" y="-30.38" font-family="Times New Roman,serif" font-size="14.00">C_D b</text>
<text text-anchor="middle" x="667.58" y="-14.63" font-family="Times New Roman,serif" font-size="14.00">Generics: a ,b</text>
</g>
<!-- 0&#45;&gt;5 -->
<g id="edge1" class="edge">
<title>0&#45;&gt;5</title>
<path fill="none" stroke="black" d="M478.03,-100.5C515.75,-86.26 568.28,-66.42 608.47,-51.25"/>
<polygon fill="black" stroke="black" points="609.66,-54.54 617.78,-47.73 607.19,-47.99 609.66,-54.54"/>
</g>
</g>
</svg>
